<svg version="1" xmlns="http://www.w3.org/2000/svg" width="933.333" height="933.333" viewBox="0 0 700.000000 700.000000"><path d="M329 .6c-1.9.2-8.7.9-15 1.5-57.8 5.4-117.2 27.7-166 62.2-30.2 21.4-62.3 53.5-83.7 83.7C29.7 196.8 8.7 253.1 1.8 314.5c-1.7 15.4-1.7 55.6 0 71 7.8 69.6 33.1 130.8 76.5 185 10.4 12.9 38.3 40.9 51.4 51.4l10.3 8.2.2-122.3c.3-121.7.3-122.3 2.4-126.8 3.1-6.7 6.8-10.6 13.2-13.7 5.6-2.8 6.1-2.8 26.5-3.1l20.7-.4v-26.9c0-29 .9-41.2 4.2-55.4 12.3-53.6 54.3-95.9 108.2-109 55.8-13.6 115.1 6.9 150 52 17.5 22.4 27.4 47.2 30.5 75.7.6 5.4 1.1 21.8 1.1 36.7v26.9l20.8.4c20.3.3 20.8.3 26.4 3.1 6.4 3.1 10.1 7 13.2 13.7 2.1 4.5 2.1 5.1 2.4 126.8l.2 122.3 10.3-8.2c13.1-10.5 41-38.5 51.4-51.4 43.4-54.2 68.7-115.4 76.5-185 1.7-15.4 1.7-55.6 0-71-7.8-69.6-33.1-130.8-76.5-185-10.4-12.9-38.3-40.8-51.2-51.2-53-42.5-112.7-67.6-180-75.9C378.3 1 336.7-.3 329 .6z"/><path d="M336.6 218c-39.8 6.3-71 34.2-81.3 72.5-2.5 9.6-2.6 11.2-3.1 41.7l-.4 31.8h196.4l-.4-31.8c-.5-30.5-.6-32.1-3.1-41.7-11.3-42.1-47.9-71.4-91.2-73-6-.2-13.7 0-16.9.5zM342.5 504.7c-15 2.3-26.3 8-36.5 18.3-12.6 12.5-18.3 26.3-18.3 44s5.7 31.5 18.2 44c12.7 12.6 26.4 18.3 44.1 18.3 17.7 0 31.4-5.7 44.1-18.3 12.5-12.5 18.2-26.3 18.2-44s-5.7-31.5-18.3-44c-8.3-8.4-17.4-13.8-27.7-16.4-6.6-1.7-18.9-2.7-23.8-1.9zm20.6 14.9c8.8 2.6 15 6.3 21.5 12.8 9.7 9.7 14.4 21 14.4 34.6 0 13.6-4.7 24.9-14.4 34.6-9.7 9.7-21 14.4-34.6 14.4-13.6 0-24.9-4.7-34.6-14.4-15.5-15.6-18.9-37.9-8.7-58.1 3.2-6.1 13.3-16.4 19.3-19.5 11.6-6 26-7.7 37.1-4.4z"/><path d="M345.2 548.3c-2.1 2.2-2.2 3.3-2.2 18.8 0 16 .1 16.6 2.3 18.7 3 2.8 6.8 2.8 9.5-.1 2.1-2.2 2.2-3.3 2.2-18.8 0-16-.1-16.6-2.3-18.7-3-2.8-6.8-2.8-9.5.1z"/></svg>